<svg xmlns="http://www.w3.org/2000/svg" width="512" height="512"><g xmlns="http://www.w3.org/2000/svg"><path d="M461.81 64.59h-5.85v29.14c0 8.28-6.72 15-15 15-8.29 0-15-6.72-15-15V64.59h-43.98v29.14c0 8.28-6.72 15-15 15-8.29 0-15-6.72-15-15V64.59H308v29.14c0 8.28-6.72 15-15 15s-15-6.72-15-15V64.59h-44v29.14c0 8.28-6.72 15-15 15s-15-6.72-15-15V64.59h-43.98v29.14c0 8.28-6.71 15-15 15-8.28 0-15-6.72-15-15V64.59H86.04v29.14c0 8.28-6.71 15-15 15-8.28 0-15-6.72-15-15V64.59h-5.86C22.51 64.59 0 87.1 0 114.78v29.81h512v-29.81c0-27.68-22.52-50.19-50.19-50.19zM241.07 363v48.27h29.87V363c0-8.28 6.71-15 15-15h48.26v-29.86h-48.26c-8.29 0-15-6.72-15-15v-48.27h-29.87v48.27c0 8.28-6.72 15-15 15h-48.28V348h48.28c8.28 0 15 6.72 15 15z" fill="#bdbdbd" data-original="#000000"/><path d="M0 441.36c0 27.68 22.51 50.19 50.18 50.19h411.63c27.67 0 50.19-22.51 50.19-50.19V174.59H0zm147.79-138.22c0-8.29 6.72-15 15-15h48.28v-48.27c0-8.29 6.71-15 15-15h59.87c8.28 0 15 6.71 15 15v48.27h48.26c8.28 0 15 6.71 15 15V363c0 8.29-6.72 15-15 15h-48.26v48.27c0 8.29-6.72 15-15 15h-59.87c-8.29 0-15-6.71-15-15V378h-48.28c-8.28 0-15-6.71-15-15zM234 35.45c0-8.28-6.72-15-15-15s-15 6.72-15 15v29.14h30zM160.02 35.45c0-8.28-6.71-15-15-15-8.28 0-15 6.72-15 15v29.14h30zM86.04 35.45c0-8.28-6.71-15-15-15-8.28 0-15 6.72-15 15v29.14h30zM455.96 35.45c0-8.28-6.72-15-15-15-8.29 0-15 6.72-15 15v29.14h30zM381.98 35.45c0-8.28-6.72-15-15-15-8.29 0-15 6.72-15 15v29.14h30zM308 35.45c0-8.28-6.72-15-15-15s-15 6.72-15 15v29.14h30z" fill="#bdbdbd" data-original="#000000"/></g></svg>