<svg xmlns="http://www.w3.org/2000/svg" width="512" height="512"><path d="M337.92 89.845C161.28 33.525 0 164.085 0 333.045c0 23.04 2.56 66.56 10.24 92.16 0 5.12 5.12 10.24 10.24 10.24h468.48c5.12 0 10.24-5.12 12.8-10.24 5.12-25.6 10.24-69.12 10.24-92.16 0-110.08-69.12-209.92-174.08-243.2zm-81.92 38.4c15.36 0 25.6 10.24 25.6 25.6 0 15.36-10.24 25.6-25.6 25.6s-25.6-10.24-25.6-25.6c0-15.36 10.24-25.6 25.6-25.6zm-179.2 230.4c-15.36 0-25.6-10.24-25.6-25.6 0-15.36 10.24-25.6 25.6-25.6s25.6 10.24 25.6 25.6c0 15.36-10.24 25.6-25.6 25.6zm71.68-133.12c-10.24 10.24-25.6 10.24-35.84 0-10.24-10.24-10.24-28.16-2.56-38.4 10.24-10.24 25.6-10.24 35.84 0s10.24 28.16 2.56 38.4zM256 384.245c-28.16 0-53.76-25.6-46.08-51.2s46.08-102.4 46.08-102.4 38.4 76.8 46.08 102.4c7.68 25.6-17.92 51.2-46.08 51.2zm145.92-158.72c-10.24 10.24-25.6 10.24-35.84 0s-10.24-25.6 0-35.84 25.6-10.24 35.84 0c7.68 7.68 7.68 25.6 0 35.84zm33.28 133.12c-15.36 0-25.6-10.24-25.6-25.6 0-15.36 10.24-25.6 25.6-25.6s25.6 10.24 25.6 25.6c0 15.36-10.24 25.6-25.6 25.6z" fill="#bdbdbd" data-original="#000000" xmlns="http://www.w3.org/2000/svg"/></svg>