<svg width="1030" height="420" fill="none" xmlns="http://www.w3.org/2000/svg"><path d="M136 272c75.111 0 136-60.889 136-136C272 60.89 211.111 0 136 0 60.89 0 0 60.89 0 136c0 75.111 60.89 136 136 136z" fill="#336CFB"/><path d="M109.415 39.878c19.529 0 35.361 11.304 35.361 31.565 0-20.26 15.833-31.565 35.363-31.565S215.5 56.302 215.5 76.563c0 26.222-53.119 74.654-70.723 94.743-17.604-20.089-70.723-68.521-70.723-94.743 0-20.26 15.832-36.685 35.361-36.685z" fill="#FA6B4B"/><path d="M61.688 100.599a1.242 1.242 0 01-1.24-1.24 1.242 1.242 0 011.24-1.24h43.723l7.926-19.204a1.234 1.234 0 012.293.016l.004-.001 12.068 30.463 10.603-17.954a1.234 1.234 0 011.076-.608 1.243 1.243 0 011.066.624l6.234 9.559 8.911-9.476a1.243 1.243 0 011.052-.38 1.24 1.24 0 01.928.623h.001l3.558 6.347h62.659a1.241 1.241 0 010 2.48h-63.384v-.002a1.231 1.231 0 01-1.08-.633l-3.089-5.51-8.832 9.391-.001-.001a1.241 1.241 0 01-1.54.211 1.247 1.247 0 01-.399-.386l-6.044-9.268-10.856 18.381a1.24 1.24 0 01-2.24-.138l-11.872-29.968-7.036 17.05a1.242 1.242 0 01-1.182.863H61.686l.002.001zm78.759-9.145a1.237 1.237 0 01-.011 1.243" fill="#FEFEFE"/><path d="M134.719 161.204c16.211 4.704 46.108 9.625 46.108 9.625s-1.689 10.747-10.739 12.817c-9.05 2.07-33.258-2.681-33.258-2.681s-4.414 4.34 3.372 5.787c7.787 1.448 45.9.624 45.9.624s39.128-18.539 45.866-21.023c6.737-2.484 10.736 3.719 10.736 3.719s-45.027 35.651-49.238 38.756c-4.212 3.102-74.282 9.137-74.282 9.137l-20.762 2.111-8.209 8.78-3.685 5.343-37.448-30.785L78.955 182.2c11.779-19.756 39.554-25.698 55.767-20.994l-.003-.002z" fill="#FED298"/><path d="M236.578 174.917c-12.461 9.857-39.872 31.52-43.115 33.909-4.211 3.102-74.281 9.137-74.281 9.137l-20.762 2.111-8.21 8.78-3.684 5.343-3.425-2.817c8.575-8.348 14.794-13.767 13.27-12.913-1.523.854 88.828-7.694 95.748-11.279 6.921-3.585 39.83-30.104 41.275-31.911 1.445-1.806 3.181-.361 3.181-.361h.001l.002.001z" fill="#F0BA7D"/><path d="M168.734 169.982l-.829 4.004 9.319.553c.683-.779 1.18-1.705.87-3.259l-9.359-1.298h-.001zm66.808 3.028l1.145 1.209 5-3.572c.332-.713-1.226-.929-1.226-.929l-4.919 3.292zM52.076 190.766l37.122 47.094-8.189 8.516-39.531-48.973 10.6-6.636-.002-.001z" fill="#fff"/><path d="M23.36 212.231l18.115-14.829 44.173 53.281-8.418 7.996c-21.812-10.468-40.399-26.583-53.87-46.447v-.001z" fill="#3D4F7A"/><path d="M318.2 273.2c-1.867 0-3.333-.6-4.4-1.8-1.067-1.2-1.6-2.467-1.6-3.8 0-1.6.267-3.267.8-5L339.4 142c.267-1.6.933-2.8 2-3.6 1.2-.933 2.6-1.4 4.2-1.4 1.467 0 2.733.4 3.8 1.2 1.067.8 1.8 1.8 2.2 3l33.4 106L423.4 141c.533-1.2 1.333-2.133 2.4-2.8 1.2-.8 2.533-1.2 4-1.2 1.333 0 2.533.467 3.6 1.4 1.067.933 1.733 2.133 2 3.6l26.8 120c.667 2.267 1 4.133 1 5.6 0 1.467-.6 2.8-1.8 4-1.2 1.067-2.667 1.6-4.4 1.6-1.6 0-3-.4-4.2-1.2-1.067-.933-1.733-2.2-2-3.8L428 165.8l-37.4 103.4c-.4 1.2-1.2 2.133-2.4 2.8a5.852 5.852 0 01-3.6 1.2c-1.333 0-2.533-.4-3.6-1.2-1.067-.8-1.8-1.867-2.2-3.2l-32.2-101.2-22.2 100.6c-.267 1.6-1 2.867-2.2 3.8-1.067.8-2.4 1.2-4 1.2zm212.378 0c-9.733 0-18.4-2.133-26-6.4-7.6-4.4-13.467-10.267-17.6-17.6-4.133-7.333-6.2-15.333-6.2-24 0-9.067 1.867-17.533 5.6-25.4 3.867-8 9.2-14.4 16-19.2 6.8-4.8 14.6-7.2 23.4-7.2 8 0 14.8 1.533 20.4 4.6 5.733 3.067 10 6.733 12.8 11 2.933 4.267 4.4 8.067 4.4 11.4 0 2.4-1.6 4.533-4.8 6.4l-62 35.4c3.333 6.4 7.867 11.267 13.6 14.6 5.733 3.2 12.467 4.8 20.2 4.8 4.267 0 8.733-1.067 13.4-3.2 4.8-2.133 8.6-4.667 11.4-7.6.933-1.333 2.267-2 4-2s3.133.6 4.2 1.8c1.2 1.067 1.8 2.467 1.8 4.2 0 1.333-.533 2.667-1.6 4-3.6 4.133-8.533 7.6-14.8 10.4-6.133 2.667-12.2 4-18.2 4zm20.4-74.4c-1.867-4.533-4.8-7.933-8.8-10.2-4-2.267-9.4-3.4-16.2-3.4-6.4 0-12.133 1.8-17.2 5.4-5.067 3.467-9.067 8.2-12 14.2-2.8 6-4.267 12.6-4.4 19.8 0 2.667.133 4.8.4 6.4l58.2-32.2zm64.795 74.4c-6.533 0-12.466-1.8-17.8-5.4-5.2-3.6-9.333-8.8-12.4-15.6-3.066-6.933-4.6-15-4.6-24.2 0-17.067 3.8-30.4 11.4-40 7.6-9.6 18.067-14.4 31.4-14.4 8.934 0 17.8 2.333 26.6 7l1-39.8c0-1.733.667-3.2 2-4.4 1.334-1.333 2.867-2 4.6-2 1.6 0 3 .667 4.2 2 1.334 1.333 2 2.867 2 4.6l-3 126.2c0 1.733-.666 3.2-2 4.4-1.2 1.067-2.666 1.6-4.4 1.6-1.866 0-3.4-.667-4.6-2-1.2-1.467-1.733-3.133-1.6-5l.2-8.2c-10.4 10.133-21.4 15.2-33 15.2zm.2-11.8c6.134 0 11.734-1.267 16.8-3.8 5.067-2.533 9-5.533 11.8-9 2.934-3.6 4.467-6.733 4.6-9.4l1-46.2c-2.933-1.733-6.8-3.4-11.6-5-4.666-1.6-9.4-2.4-14.2-2.4-10.266 0-18 3.667-23.2 11-5.2 7.333-7.8 17.6-7.8 30.8 0 10.667 2 19 6 25 4.134 6 9.667 9 16.6 9zm85.255-103.8c-1.733 0-3.2-.6-4.4-1.8-1.2-1.2-1.8-2.667-1.8-4.4l.2-8.2c0-1.6.667-3 2-4.2 1.333-1.2 2.8-1.8 4.4-1.8 1.6 0 3 .667 4.2 2 1.2 1.2 1.8 2.6 1.8 4.2l-.2 8.2c0 1.733-.667 3.2-2 4.4-1.2 1.067-2.6 1.6-4.2 1.6zm-1.2 115.6c-1.733 0-3.267-.6-4.6-1.8-1.333-1.333-2-2.867-2-4.6l1.2-86.8c0-1.733.667-3.267 2-4.6 1.333-1.333 2.867-2 4.6-2 1.733 0 3.2.667 4.4 2 1.333 1.2 2 2.733 2 4.6l-1.2 86.8c0 1.733-.667 3.267-2 4.6-1.2 1.2-2.667 1.8-4.4 1.8zm75.913 0c-7.734 0-15-1.867-21.8-5.6-6.667-3.867-12-9.133-16-15.8-3.867-6.667-5.8-14-5.8-22 0-9.067 2.066-17.933 6.2-26.6 4.266-8.8 9.866-15.933 16.8-21.4 6.933-5.6 14.133-8.4 21.6-8.4 6.933 0 12.6 1.133 17 3.4 4.533 2.267 8.866 5.8 13 10.6 1.066 1.067 1.6 2.467 1.6 4.2s-.6 3.2-1.8 4.4c-1.067 1.2-2.467 1.8-4.2 1.8-1.867 0-3.4-.733-4.6-2.2-2.934-3.467-5.934-6.067-9-7.8-3.067-1.867-6.934-2.8-11.6-2.8-5.334 0-10.534 2.133-15.6 6.4-5.067 4.267-9.2 9.867-12.4 16.8-3.2 6.8-4.8 13.867-4.8 21.2 0 6.667 1.533 12.467 4.6 17.4 3.2 4.8 7.2 8.467 12 11 4.933 2.533 9.866 3.8 14.8 3.8 11.466 0 20.4-4.6 26.8-13.8 1.733-2.4 3.6-3.6 5.6-3.6 1.733 0 3.2.6 4.4 1.8 1.2 1.2 1.8 2.6 1.8 4.2 0 1.333-.667 2.867-2 4.6-3.467 5.067-8.467 9.4-15 13-6.534 3.6-13.734 5.4-21.6 5.4zm93.484 0c-7.6 0-14.533-2-20.8-6-6.133-4.133-11-9.667-14.6-16.6-3.467-7.067-5.2-14.867-5.2-23.4 0-9.067 2-17.733 6-26 4.133-8.267 9.8-14.933 17-20 7.2-5.2 15.133-7.8 23.8-7.8 7.467 0 14.267 2.067 20.4 6.2 6.267 4 11.133 9.533 14.6 16.6 3.6 6.933 5.4 14.6 5.4 23 0 9.6-2.133 18.533-6.4 26.8s-10 14.867-17.2 19.8c-7.067 4.933-14.733 7.4-23 7.4zm.8-11.4c5.733 0 11.133-1.933 16.2-5.8s9.133-9 12.2-15.4 4.6-13.2 4.6-20.4c0-6.267-1.267-12.067-3.8-17.4-2.533-5.467-6-9.8-10.4-13-4.267-3.333-9.067-5-14.4-5-5.867 0-11.333 2-16.4 6-4.933 3.867-8.933 9.067-12 15.6-2.933 6.4-4.4 13.2-4.4 20.4 0 6.933 1.267 13.067 3.8 18.4 2.667 5.2 6.2 9.267 10.6 12.2 4.4 2.933 9.067 4.4 14 4.4z" fill="#212529"/></svg>