<svg xmlns="http://www.w3.org/2000/svg" width="512" height="512" viewBox="0 0 511.998 511.998"><circle xmlns="http://www.w3.org/2000/svg" cx="255.999" cy="255.999" r="255.999" fill="#336cfb" data-original="#21d0c3"/><path xmlns="http://www.w3.org/2000/svg" d="M205.957 75.064c36.761 0 66.562 21.279 66.562 59.416 0-38.137 29.803-59.416 66.565-59.416s66.562 30.916 66.562 69.054c0 49.359-99.989 140.524-133.126 178.339-33.136-37.814-133.124-128.98-133.124-178.339-.002-38.137 29.802-69.054 66.561-69.054z" fill="#fa6b4b" data-original="#ff5b62"/><path xmlns="http://www.w3.org/2000/svg" d="M116.118 189.363a2.336 2.336 0 01-2.335-2.335 2.337 2.337 0 012.335-2.334h82.303l14.918-36.148a2.326 2.326 0 014.317.03l.007-.002 22.717 57.342 19.958-33.796a2.333 2.333 0 014.033.031l11.734 17.992 16.774-17.837a2.33 2.33 0 013.726.459l.002-.002 6.698 11.948H421.25a2.334 2.334 0 010 4.669H301.94v-.004a2.33 2.33 0 01-2.033-1.191l-5.815-10.374-16.624 17.678-.002-.002a2.33 2.33 0 01-3.65-.329l-11.377-17.445-20.434 34.6a2.334 2.334 0 01-4.218-.26l-22.346-56.411-13.244 32.096a2.335 2.335 0 01-2.225 1.623h-83.857l.003.002zm148.252-17.215a2.328 2.328 0 01-.02 2.341" fill="#fefefe" data-original="#fefefe"/><path xmlns="http://www.w3.org/2000/svg" d="M253.588 303.442c30.515 8.855 86.791 18.118 86.791 18.118s-3.18 20.229-20.214 24.126c-17.035 3.896-62.604-5.047-62.604-5.047s-8.308 8.169 6.348 10.892c14.657 2.726 86.399 1.175 86.399 1.175s73.653-34.896 86.335-39.573c12.682-4.674 20.209 7.002 20.209 7.002s-84.756 67.107-92.683 72.951c-7.928 5.839-139.824 17.2-139.824 17.2l-39.081 3.973-15.452 16.528-6.936 10.056-70.491-57.948 56.235-39.932c22.172-37.187 74.455-48.372 104.973-39.518l-.005-.003z" fill="#fed298" data-original="#fed298"/><path xmlns="http://www.w3.org/2000/svg" d="M445.321 329.254c-23.455 18.554-75.053 59.332-81.156 63.828-7.928 5.839-139.824 17.2-139.824 17.2l-39.081 3.973-15.452 16.528-6.936 10.056-6.447-5.301c16.141-15.714 27.848-25.915 24.979-24.308-2.868 1.607 167.205-14.482 180.23-21.23 13.028-6.749 74.975-56.667 77.694-60.068 2.721-3.4 5.988-.679 5.988-.679h.002l.003.001z" fill="#f0ba7d" data-original="#f0ba7d"/><g xmlns="http://www.w3.org/2000/svg"><path d="M317.616 319.965l-1.561 7.536 17.542 1.041c1.285-1.466 2.221-3.208 1.638-6.134l-17.617-2.443h-.002zM443.372 325.665l2.154 2.276 9.413-6.725c.624-1.342-2.308-1.749-2.308-1.749l-9.259 6.198zM98.025 359.087l69.876 88.648-15.414 16.03-74.411-92.185 19.952-12.491-.003-.002z" fill="#fff" data-original="#ffffff"/></g><path xmlns="http://www.w3.org/2000/svg" d="M43.971 399.493l34.1-27.915 83.149 100.294-15.846 15.051c-41.057-19.704-76.045-50.037-101.401-87.429l-.002-.001z" fill="#3d4f7a" data-original="#0f7986"/></svg>