<svg xmlns="http://www.w3.org/2000/svg" width="512" height="512" viewBox="0 0 510 510"><path d="M457.5 286.898V67.5C457.5 30.28 427.22 0 390 0s-67.5 30.28-67.5 67.5v330c0 45.49-37.01 82.5-82.5 82.5-45.491 0-82.5-37.01-82.5-82.5v-8.015c25.39-3.542 45-25.386 45-51.735v-21.794c44.419-22.077 74.959-67.891 75-120.85V165h-15V93.5c0-42.111-33.334-76.572-75-78.411V0h-30v60h30V45.14c25.114 1.801 45 22.795 45 48.36V165h-15v30.036c-.02 41.405-33.591 74.964-75 74.964-41.405 0-74.973-33.552-75-74.95V165h-15V93.5c0-25.565 19.886-46.559 45-48.36V60h30V0h-30v15.089c-41.666 1.839-75 36.3-75 78.411V165h-15v30.118c.045 52.954 30.584 98.763 75 120.838v21.794c0 26.35 19.61 48.194 45 51.735v8.015c0 62.032 50.467 112.5 112.5 112.5 62.032 0 112.5-50.468 112.5-112.5v-330c0-20.678 16.822-37.5 37.5-37.5s37.5 16.822 37.5 37.5v219.398c-25.85 6.678-45 30.195-45 58.102 0 33.084 26.916 60 60 60s60-26.916 60-60c0-27.906-19.15-51.424-45-58.102zm-345 50.852v-11.101a135.961 135.961 0 0060 0v11.101c0 12.269-9.981 22.25-22.25 22.25h-15.5c-12.269 0-22.25-9.981-22.25-22.25z" fill="#fff" data-original="#000000" xmlns="http://www.w3.org/2000/svg"/></svg>